<?xml version="1.0" encoding="utf-8"?>
<!-- Generator: Adobe Illustrator 27.9.0, SVG Export Plug-In . SVG Version: 6.00 Build 0)  -->
<svg version="1.1" xmlns="http://www.w3.org/2000/svg" xmlns:xlink="http://www.w3.org/1999/xlink" x="0px" y="0px"
	 viewBox="0 0 841.89 595.28" style="enable-background:new 0 0 841.89 595.28;" xml:space="preserve">
<style type="text/css">
	.st0{fill:#143652;}
	.st1{fill:#F2AF46;}
	.st2{fill:#008BC2;}
	.st3{fill:#49A0D7;}
</style>
<g id="tlo">
</g>
<g id="miarki">
</g>
<g id="Warstwa_3">
</g>
<g id="Warstwa_6">
</g>
<g id="Warstwa_4">
</g>
<g id="Warstwa_5">
	<g>
		<g>
			<path class="st0" d="M338.67,263.12h-9.44v5.64h8.74v5.68h-8.74v12.15h-6.73v-29.14h16.17V263.12z"/>
			<path class="st0" d="M348.02,267.09v10.75c0,0.87,0.09,2.23,1.09,3.15c0.44,0.39,1.22,0.92,2.62,0.92c1.18,0,2.1-0.39,2.67-0.92
				c0.92-0.87,1.05-2.18,1.05-3.15v-10.75h6.29v11.36c0,2.23-0.22,4.33-2.18,6.25c-2.23,2.18-5.51,2.53-7.82,2.53
				c-2.4,0-5.64-0.35-7.86-2.53c-1.79-1.75-2.14-3.71-2.14-5.86v-11.75H348.02z"/>
			<path class="st0" d="M365.94,267.09h6.29v2.32c1.92-2.45,4.19-2.84,6.03-2.84c1.7,0,3.93,0.31,5.59,1.97
				c1.84,1.83,1.97,4.15,1.97,5.72v12.32h-6.29v-10.01c0-1.27-0.04-2.88-1.05-3.89c-0.48-0.48-1.27-0.87-2.4-0.87
				c-1.31,0-2.14,0.52-2.62,1.05c-1.05,1.05-1.22,2.45-1.22,3.71v10.01h-6.29V267.09z"/>
			<path class="st0" d="M411.26,286.58h-6.29v-2.36c-0.96,1.4-2.71,3.01-6.16,3.01c-2.88,0-4.98-0.92-6.69-2.66
				c-2.01-2.01-3.06-4.81-3.06-7.82c0-3.23,1.18-5.9,3.06-7.69c1.7-1.62,4.11-2.62,6.77-2.62c2.14,0,4.5,0.7,6.07,2.84v-14.55h6.29
				V286.58z M397.06,273.17c-0.92,0.87-1.53,2.14-1.53,3.71c0,1.44,0.61,2.71,1.53,3.58c0.96,0.92,2.19,1.35,3.28,1.35
				c1.18,0,2.58-0.48,3.58-1.44c0.74-0.7,1.44-1.88,1.44-3.5c0-1.66-0.66-2.8-1.4-3.58c-1-1.05-2.18-1.44-3.54-1.44
				C399.16,271.86,398.06,272.21,397.06,273.17z"/>
			<path class="st0" d="M430.58,267.09h6.29v19.49h-6.29v-2.36c-1.7,2.62-4.15,3.01-5.77,3.01c-2.8,0-5.16-0.7-7.3-2.97
				c-2.05-2.18-2.84-4.72-2.84-7.3c0-3.28,1.22-6.07,3.02-7.86c1.7-1.7,4.06-2.66,6.77-2.66c1.66,0,4.33,0.39,6.12,2.84V267.09z
				 M422.58,273.25c-0.66,0.66-1.44,1.79-1.44,3.54c0,1.75,0.74,2.88,1.31,3.5c0.87,0.92,2.23,1.53,3.71,1.53
				c1.27,0,2.45-0.52,3.28-1.35c0.83-0.79,1.53-2.01,1.53-3.67c0-1.4-0.52-2.71-1.44-3.58c-0.96-0.92-2.36-1.35-3.5-1.35
				C424.68,271.86,423.41,272.42,422.58,273.25z"/>
			<path class="st0" d="M455.71,273.25c-1.53-1.27-3.1-1.48-4.11-1.48c-1.97,0-3.15,0.96-3.58,1.4c-0.83,0.83-1.44,2.1-1.44,3.67
				c0,1.44,0.52,2.67,1.31,3.5c0.96,1.05,2.4,1.57,3.8,1.57c1.09,0,2.58-0.31,4.02-1.53v5.68c-1.66,0.92-3.23,1.18-4.98,1.18
				c-3.28,0-5.77-1.18-7.56-2.93c-1.49-1.44-3.06-3.89-3.06-7.43c0-3.32,1.4-5.94,3.23-7.69c2.18-2.05,4.76-2.75,7.43-2.75
				c1.7,0,3.28,0.31,4.94,1.09V273.25z"/>
			<path class="st0" d="M462.79,255.12c2.05,0,3.67,1.62,3.67,3.67s-1.62,3.67-3.67,3.67c-2.05,0-3.67-1.62-3.67-3.67
				S460.74,255.12,462.79,255.12z M465.94,267.09v29.49h-6.29v-29.49H465.94z"/>
			<path class="st0" d="M485.51,267.09h6.29v19.49h-6.29v-2.36c-1.7,2.62-4.15,3.01-5.77,3.01c-2.8,0-5.16-0.7-7.3-2.97
				c-2.05-2.18-2.84-4.72-2.84-7.3c0-3.28,1.22-6.07,3.02-7.86c1.7-1.7,4.06-2.66,6.77-2.66c1.66,0,4.33,0.39,6.12,2.84V267.09z
				 M477.52,273.25c-0.66,0.66-1.44,1.79-1.44,3.54c0,1.75,0.74,2.88,1.31,3.5c0.87,0.92,2.23,1.53,3.71,1.53
				c1.27,0,2.45-0.52,3.28-1.35c0.83-0.79,1.53-2.01,1.53-3.67c0-1.4-0.52-2.71-1.44-3.58c-0.96-0.92-2.36-1.35-3.5-1.35
				C479.62,271.86,478.35,272.42,477.52,273.25z"/>
			<path class="st0" d="M505.49,267.09h6.29v2.32c1.92-2.45,4.19-2.84,6.03-2.84c1.7,0,3.93,0.31,5.59,1.97
				c1.84,1.83,1.97,4.15,1.97,5.72v12.32h-6.29v-10.01c0-1.27-0.04-2.88-1.05-3.89c-0.48-0.48-1.27-0.87-2.4-0.87
				c-1.31,0-2.14,0.52-2.62,1.05c-1.05,1.05-1.22,2.45-1.22,3.71v10.01h-6.29V267.09z"/>
			<path class="st0" d="M544.51,267.09h6.29v19.49h-6.29v-2.36c-1.7,2.62-4.15,3.01-5.77,3.01c-2.8,0-5.16-0.7-7.3-2.97
				c-2.05-2.18-2.84-4.72-2.84-7.3c0-3.28,1.22-6.07,3.02-7.86c1.7-1.7,4.06-2.66,6.77-2.66c1.66,0,4.33,0.39,6.12,2.84V267.09z
				 M536.52,273.25c-0.66,0.66-1.44,1.79-1.44,3.54c0,1.75,0.74,2.88,1.31,3.5c0.87,0.92,2.23,1.53,3.71,1.53
				c1.27,0,2.45-0.52,3.28-1.35c0.83-0.79,1.53-2.01,1.53-3.67c0-1.4-0.52-2.71-1.44-3.58c-0.96-0.92-2.36-1.35-3.5-1.35
				C538.62,271.86,537.35,272.42,536.52,273.25z"/>
			<path class="st0" d="M564.49,267.09h6.29v3.06c0.57-1.09,1.44-2.1,2.45-2.71c1.05-0.66,2.14-0.83,3.36-0.83
				c0.79,0,1.35,0.09,2.05,0.31l-0.35,5.9c-0.83-0.44-1.75-0.7-2.84-0.7c-1.35,0-2.36,0.48-3.15,1.31c-1.4,1.49-1.53,3.58-1.53,5.24
				v7.91h-6.29V267.09z"/>
			<path class="st0" d="M589.31,281.34h9.22v5.24h-19.88l10.14-14.24h-8.61v-5.24h19.23L589.31,281.34z"/>
			<path class="st0" d="M621.65,277.93H607.1c0,1.05,0.39,2.45,1.18,3.32c0.96,1.05,2.27,1.22,3.23,1.22c0.92,0,1.88-0.17,2.53-0.57
				c0.09-0.04,0.83-0.52,1.35-1.62l5.94,0.61c-0.87,2.75-2.62,4.2-3.76,4.89c-1.88,1.14-3.98,1.44-6.16,1.44
				c-2.93,0-5.51-0.52-7.78-2.8c-1.7-1.7-2.93-4.28-2.93-7.52c0-2.8,1-5.68,2.97-7.69c2.36-2.36,5.29-2.8,7.47-2.8
				c2.19,0,5.33,0.39,7.73,2.93c2.32,2.45,2.75,5.51,2.75,7.91V277.93z M615.84,274.17c-0.04-0.17-0.35-1.4-1.27-2.27
				c-0.7-0.66-1.7-1.09-2.97-1.09c-1.62,0-2.58,0.66-3.19,1.27c-0.48,0.52-0.92,1.22-1.09,2.1H615.84z"/>
			<path class="st0" d="M639.53,273.25c-1.53-1.27-3.1-1.48-4.11-1.48c-1.97,0-3.15,0.96-3.58,1.4c-0.83,0.83-1.44,2.1-1.44,3.67
				c0,1.44,0.52,2.67,1.31,3.5c0.96,1.05,2.4,1.57,3.8,1.57c1.09,0,2.58-0.31,4.02-1.53v5.68c-1.66,0.92-3.23,1.18-4.98,1.18
				c-3.28,0-5.77-1.18-7.56-2.93c-1.49-1.44-3.06-3.89-3.06-7.43c0-3.32,1.4-5.94,3.23-7.69c2.18-2.05,4.76-2.75,7.43-2.75
				c1.7,0,3.28,0.31,4.94,1.09V273.25z"/>
			<path class="st0" d="M651.77,281.34h9.22v5.24H641.1l10.14-14.24h-8.61v-5.24h19.23L651.77,281.34z"/>
			<path class="st0" d="M343.56,327.29c-2.58,1.31-4.68,1.57-6.42,1.57c-5.37,0-9-1.83-11.45-4.24c-2.62-2.53-4.54-6.38-4.54-11.05
				c0-4.59,1.92-8.43,4.54-10.97c2.58-2.49,6.34-4.19,10.88-4.19c1.92,0,4.15,0.39,6.99,1.62v7.78c-1.49-1.57-3.71-3.1-6.82-3.1
				c-2.45,0-4.41,0.79-5.94,2.27c-1.62,1.57-2.75,3.93-2.75,6.73c0,3.02,1.22,5.16,2.53,6.42c0.61,0.61,2.71,2.45,6.29,2.45
				c1.75,0,4.11-0.48,6.69-3.02V327.29z"/>
			<path class="st0" d="M366.51,325.71c-1.75,1.75-4.72,3.15-8.52,3.15c-3.8,0-6.77-1.4-8.52-3.15c-1.97-1.97-2.93-4.76-2.93-7.25
				c0-2.49,0.96-5.29,2.93-7.25c1.75-1.75,4.72-3.15,8.52-3.15c3.8,0,6.77,1.4,8.52,3.15c1.97,1.97,2.93,4.76,2.93,7.25
				C369.43,320.95,368.47,323.75,366.51,325.71z M354.45,314.79c-0.92,0.92-1.44,2.1-1.44,3.67c0,1.79,0.7,2.93,1.44,3.67
				c0.79,0.79,1.92,1.4,3.58,1.4c1.4,0,2.58-0.48,3.5-1.4c0.92-0.92,1.44-2.1,1.44-3.67s-0.52-2.75-1.44-3.67
				c-0.92-0.92-2.1-1.4-3.54-1.4S355.36,313.87,354.45,314.79z"/>
			<path class="st0" d="M379.14,296.35v31.85h-6.29v-31.85H379.14z"/>
			<path class="st0" d="M389.98,296.35v31.85h-6.29v-31.85H389.98z"/>
			<path class="st0" d="M414.32,319.55h-14.55c0,1.05,0.39,2.45,1.18,3.32c0.96,1.05,2.27,1.22,3.23,1.22
				c0.92,0,1.88-0.17,2.53-0.57c0.09-0.04,0.83-0.52,1.35-1.62l5.94,0.61c-0.87,2.75-2.62,4.2-3.76,4.89
				c-1.88,1.14-3.98,1.44-6.16,1.44c-2.93,0-5.51-0.52-7.78-2.8c-1.7-1.7-2.93-4.28-2.93-7.52c0-2.8,1-5.68,2.97-7.69
				c2.36-2.36,5.29-2.8,7.47-2.8c2.19,0,5.33,0.39,7.73,2.93c2.32,2.45,2.75,5.51,2.75,7.91V319.55z M408.51,315.79
				c-0.04-0.17-0.35-1.4-1.27-2.27c-0.7-0.66-1.7-1.09-2.97-1.09c-1.62,0-2.58,0.66-3.19,1.27c-0.48,0.52-0.92,1.22-1.09,2.1H408.51
				z"/>
			<path class="st0" d="M432.37,308.72h6.29v18.31c0,2.75-0.13,5.86-2.4,8.3c-2.4,2.58-6.07,2.88-8.21,2.88
				c-2.58,0-5.68-0.39-8.13-2.49c-1.22-1.05-2.49-2.71-2.93-5.16h6.86c0.26,1,0.87,1.57,1.4,1.92c0.74,0.48,1.79,0.66,2.71,0.66
				c1.79,0,2.71-0.66,3.15-1.05c1.22-1.18,1.27-3.23,1.27-4.06v-2.23c-0.74,1.22-2.23,2.93-5.81,2.93c-3.02,0-5.33-0.96-7.12-2.75
				c-1.57-1.62-2.84-3.98-2.84-7.34c0-3.32,1.22-6.07,2.88-7.78c1.18-1.22,3.45-2.8,7.08-2.8c3.54,0,5.11,1.88,5.81,2.93V308.72z
				 M424.55,314.79c-0.96,0.92-1.49,2.45-1.49,3.63c0,1.27,0.48,2.58,1.35,3.49c0.87,0.92,2.05,1.4,3.54,1.4
				c1.66,0,2.75-0.66,3.41-1.27c0.96-0.92,1.53-2.27,1.53-3.71c0-1.53-0.66-2.8-1.49-3.58c-0.92-0.83-2.27-1.22-3.41-1.22
				C426.6,313.52,425.34,314.05,424.55,314.79z"/>
			<path class="st0" d="M446.45,296.74c2.05,0,3.67,1.62,3.67,3.67s-1.62,3.67-3.67,3.67c-2.05,0-3.67-1.62-3.67-3.67
				S444.39,296.74,446.45,296.74z M449.59,308.72v19.49h-6.29v-19.49H449.59z"/>
			<path class="st0" d="M460.52,308.72v10.75c0,0.87,0.09,2.23,1.09,3.15c0.44,0.39,1.22,0.92,2.62,0.92c1.18,0,2.1-0.39,2.67-0.92
				c0.92-0.87,1.05-2.18,1.05-3.15v-10.75h6.29v11.36c0,2.23-0.22,4.33-2.18,6.25c-2.23,2.18-5.51,2.53-7.82,2.53
				c-2.4,0-5.64-0.35-7.86-2.53c-1.79-1.75-2.14-3.71-2.14-5.86v-11.75H460.52z"/>
			<path class="st0" d="M478.44,308.72h6.29v2.27c1.62-2.45,3.98-2.75,5.46-2.75c0.83,0,2.36,0.09,3.67,0.87
				c1,0.57,1.84,1.53,2.36,2.71c0.48-0.79,1.22-1.7,2.49-2.49c1.35-0.83,2.62-1.09,4.15-1.09c2.36,0,4.28,0.7,5.46,1.83
				c1.88,1.79,2.01,4.41,2.01,5.81v12.32h-6.29v-9.87c0-1.01,0-2.75-0.83-3.8c-0.52-0.66-1.35-1.05-2.27-1.05
				c-1.05,0-1.92,0.48-2.45,1.18c-0.83,1.05-0.96,2.58-0.96,3.84v9.7h-6.29v-10.14c0-1.31-0.04-2.84-1-3.8
				c-0.66-0.66-1.44-0.79-2.1-0.79c-0.83,0-1.57,0.22-2.18,0.79c-1.18,1.14-1.22,3.32-1.22,3.98v9.96h-6.29V308.72z"/>
			<path class="st0" d="M535.07,299.06c2.53,0,5.33,0.35,7.65,2.4c2.49,2.18,2.84,5.07,2.84,7.08c0,3.67-1.4,5.72-2.49,6.86
				c-2.32,2.36-5.37,2.58-7.43,2.58h-4.11v10.22h-6.73v-29.14H535.07z M531.54,312.48h2.4c0.92,0,2.53-0.04,3.63-1.09
				c0.61-0.61,1.09-1.62,1.09-2.88c0-1.22-0.44-2.23-1.09-2.84c-1.01-0.96-2.45-1.09-3.76-1.09h-2.27V312.48z"/>
			<path class="st0" d="M567.37,325.71c-1.75,1.75-4.72,3.15-8.52,3.15c-3.8,0-6.77-1.4-8.52-3.15c-1.97-1.97-2.93-4.76-2.93-7.25
				c0-2.49,0.96-5.29,2.93-7.25c1.75-1.75,4.72-3.15,8.52-3.15c3.8,0,6.77,1.4,8.52,3.15c1.97,1.97,2.93,4.76,2.93,7.25
				C570.3,320.95,569.34,323.75,567.37,325.71z M555.31,314.79c-0.92,0.92-1.44,2.1-1.44,3.67c0,1.79,0.7,2.93,1.44,3.67
				c0.79,0.79,1.92,1.4,3.58,1.4c1.4,0,2.58-0.48,3.5-1.4c0.92-0.92,1.44-2.1,1.44-3.67s-0.52-2.75-1.44-3.67
				c-0.92-0.92-2.1-1.4-3.54-1.4S556.23,313.87,555.31,314.79z"/>
			<path class="st0" d="M580,296.35v31.85h-6.29v-31.85H580z"/>
			<path class="st0" d="M603.38,325.71c-1.75,1.75-4.72,3.15-8.52,3.15c-3.8,0-6.77-1.4-8.52-3.15c-1.97-1.97-2.93-4.76-2.93-7.25
				c0-2.49,0.96-5.29,2.93-7.25c1.75-1.75,4.72-3.15,8.52-3.15c3.8,0,6.77,1.4,8.52,3.15c1.97,1.97,2.93,4.76,2.93,7.25
				C606.31,320.95,605.35,323.75,603.38,325.71z M591.32,314.79c-0.92,0.92-1.44,2.1-1.44,3.67c0,1.79,0.7,2.93,1.44,3.67
				c0.79,0.79,1.92,1.4,3.58,1.4c1.4,0,2.58-0.48,3.5-1.4c0.92-0.92,1.44-2.1,1.44-3.67s-0.52-2.75-1.44-3.67
				c-0.92-0.92-2.1-1.4-3.54-1.4S592.24,313.87,591.32,314.79z"/>
			<path class="st0" d="M609.55,308.72h6.29v2.32c1.92-2.45,4.19-2.84,6.03-2.84c1.7,0,3.93,0.31,5.59,1.97
				c1.84,1.83,1.97,4.15,1.97,5.72v12.32h-6.29V318.2c0-1.27-0.04-2.88-1.05-3.89c-0.48-0.48-1.27-0.87-2.4-0.87
				c-1.31,0-2.14,0.52-2.62,1.05c-1.05,1.05-1.22,2.45-1.22,3.71v10.01h-6.29V308.72z"/>
			<path class="st0" d="M637.21,296.74c2.05,0,3.67,1.62,3.67,3.67s-1.62,3.67-3.67,3.67c-2.05,0-3.67-1.62-3.67-3.67
				S635.16,296.74,637.21,296.74z M640.36,308.72v19.49h-6.29v-19.49H640.36z"/>
			<path class="st0" d="M659.63,314.88c-1.53-1.27-3.1-1.48-4.11-1.48c-1.97,0-3.15,0.96-3.58,1.4c-0.83,0.83-1.44,2.1-1.44,3.67
				c0,1.44,0.52,2.67,1.31,3.5c0.96,1.05,2.4,1.57,3.8,1.57c1.09,0,2.58-0.31,4.02-1.53v5.68c-1.66,0.92-3.23,1.18-4.98,1.18
				c-3.28,0-5.77-1.18-7.56-2.93c-1.49-1.44-3.06-3.89-3.06-7.43c0-3.32,1.4-5.94,3.23-7.69c2.18-2.05,4.76-2.75,7.43-2.75
				c1.7,0,3.28,0.31,4.94,1.09V314.88z"/>
			<path class="st0" d="M669.42,308.72v10.75c0,0.87,0.09,2.23,1.09,3.15c0.44,0.39,1.22,0.92,2.62,0.92c1.18,0,2.1-0.39,2.67-0.92
				c0.92-0.87,1.05-2.18,1.05-3.15v-10.75h6.29v11.36c0,2.23-0.22,4.33-2.18,6.25c-2.23,2.18-5.51,2.53-7.82,2.53
				c-2.4,0-5.64-0.35-7.86-2.53c-1.79-1.75-2.14-3.71-2.14-5.86v-11.75H669.42z"/>
			<path class="st0" d="M687.34,308.72h6.29v2.27c1.62-2.45,3.98-2.75,5.46-2.75c0.83,0,2.36,0.09,3.67,0.87
				c1,0.57,1.84,1.53,2.36,2.71c0.48-0.79,1.22-1.7,2.49-2.49c1.35-0.83,2.62-1.09,4.15-1.09c2.36,0,4.28,0.7,5.46,1.83
				c1.88,1.79,2.01,4.41,2.01,5.81v12.32h-6.29v-9.87c0-1.01,0-2.75-0.83-3.8c-0.52-0.66-1.35-1.05-2.27-1.05
				c-1.05,0-1.92,0.48-2.45,1.18c-0.83,1.05-0.96,2.58-0.96,3.84v9.7h-6.29v-10.14c0-1.31-0.04-2.84-1-3.8
				c-0.66-0.66-1.44-0.79-2.1-0.79c-0.83,0-1.57,0.22-2.18,0.79c-1.18,1.14-1.22,3.32-1.22,3.98v9.96h-6.29V308.72z"/>
		</g>
		<g>
			<path class="st0" d="M186.19,266.32c-3.76,5.31-9.96,8.78-16.96,8.78c-10,0-18.36-7.09-20.34-16.49h-26.48
				c2.17,23.92,22.34,42.72,46.81,42.72c11.61,0,22.25-4.23,30.46-11.23C193.05,283.79,188.25,275.57,186.19,266.32z"/>
			<circle class="st1" cx="169.23" cy="255.59" r="13.11"/>
			<path class="st1" d="M236.98,303.15c-11.44,0-21.95,4.11-30.11,10.94c6.51,6.62,11.06,15.15,12.75,24.66
				c3.72-5.64,10.12-9.38,17.36-9.38c11.41,0,20.7,9.24,20.79,20.63h26.22C283.91,324.15,262.86,303.15,236.98,303.15z"/>
			<path class="st2" d="M257.32,258.61c-1.97,9.41-10.34,16.5-20.34,16.5c-10,0-18.36-7.09-20.34-16.5h-26.48
				c2.17,23.92,22.34,42.72,46.81,42.72s44.64-18.8,46.81-42.72H257.32z"/>
			<circle class="st1" cx="236.98" cy="255.59" r="13.11"/>
			<path class="st3" d="M169.23,303.15c-25.87,0-46.92,21-47,46.86h26.22c0.08-11.39,9.37-20.63,20.78-20.63
				c11.41,0,20.71,9.24,20.79,20.63h26.22C216.16,324.15,195.11,303.15,169.23,303.15z"/>
		</g>
	</g>
</g>
</svg>
